<svg xmlns="http://www.w3.org/2000/svg" width="360" height="88" viewBox="0 0 360 88" fill="none" role="img" aria-labelledby="notification-toast-title"><title id="notification-toast-title">Empty notification toast shell; headings, rows and buttons compose separately</title><defs>
      <linearGradient id="notification-toast-metal" x1="0" y1="0" x2="0.6" y2="1"><stop stop-color="#514535"/><stop offset=".18" stop-color="#dcc18a"/><stop offset=".38" stop-color="#a88c53"/><stop offset=".64" stop-color="#554837"/><stop offset=".82" stop-color="#bd9c59"/><stop offset="1" stop-color="#534536"/></linearGradient>
      <linearGradient id="notification-toast-soot" x2="0" y2="1"><stop stop-color="#242019"/><stop offset=".45" stop-color="#15130f"/><stop offset="1" stop-color="#0c0c0a"/></linearGradient>
      <radialGradient id="notification-toast-light"><stop stop-color="#d6b667" stop-opacity=".26"/><stop offset="1" stop-color="#d6b667" stop-opacity="0"/></radialGradient>
    </defs><rect x="3" y="3" width="354" height="82" rx="4" fill="url(#notification-toast-soot)" stroke="url(#notification-toast-metal)" stroke-width="1.8"/><rect x="7" y="7" width="346" height="74" rx="2" stroke="#a58a52" stroke-opacity=".35"/><rect x="10" y="10" width="340" height="68" rx="1" stroke="#070807" stroke-width="2"/><g transform="translate(8 8) scale(1.0 1.0)" stroke="url(#notification-toast-metal)" stroke-width=".8" fill="none">
          <path d="M0 24V0h24M5 20V5h15M0 13l7-7 6-6M0 22c9 0 17-6 17-14-5 0-8 2-8 6 0 3 3 5 6 4"/>
          <path d="m0 0 4 1-3 3Z" fill="#e4cc93"/><path d="M0 5h3M5 0v3" stroke="#f1dfb7"/>
        </g><g transform="translate(352 8) scale(-1.0 1.0)" stroke="url(#notification-toast-metal)" stroke-width=".8" fill="none">
          <path d="M0 24V0h24M5 20V5h15M0 13l7-7 6-6M0 22c9 0 17-6 17-14-5 0-8 2-8 6 0 3 3 5 6 4"/>
          <path d="m0 0 4 1-3 3Z" fill="#e4cc93"/><path d="M0 5h3M5 0v3" stroke="#f1dfb7"/>
        </g><g transform="translate(8 80) scale(1.0 -1.0)" stroke="url(#notification-toast-metal)" stroke-width=".8" fill="none">
          <path d="M0 24V0h24M5 20V5h15M0 13l7-7 6-6M0 22c9 0 17-6 17-14-5 0-8 2-8 6 0 3 3 5 6 4"/>
          <path d="m0 0 4 1-3 3Z" fill="#e4cc93"/><path d="M0 5h3M5 0v3" stroke="#f1dfb7"/>
        </g><g transform="translate(352 80) scale(-1.0 -1.0)" stroke="url(#notification-toast-metal)" stroke-width=".8" fill="none">
          <path d="M0 24V0h24M5 20V5h15M0 13l7-7 6-6M0 22c9 0 17-6 17-14-5 0-8 2-8 6 0 3 3 5 6 4"/>
          <path d="m0 0 4 1-3 3Z" fill="#e4cc93"/><path d="M0 5h3M5 0v3" stroke="#f1dfb7"/>
        </g><path d="M40 5H320M5 40V48" stroke="#f1dfb7" stroke-opacity=".18"/></svg>
